<svg width="32" height="40" viewBox="0 0 40 40" fill="none" xmlns="http://www.w3.org/2000/svg">
<rect width="24" height="40" fill="transparent"/>
<path d="M27.465 10.11L21.465 6L20.4 7.5L25.035 10.665H7.51499L12.15 7.515L11.085 6.015L5.08499 10.11C4.85212 10.2847 4.66312 10.5111 4.53294 10.7715C4.40276 11.0318 4.33499 11.3189 4.33499 11.61C4.33499 11.9011 4.40276 12.1882 4.53294 12.4485C4.66312 12.7089 4.85212 12.9353 5.08499 13.11L11.085 17.22L12.15 15.72L7.51499 12.54H25.035L20.4 15.705L21.465 17.205L27.465 13.095C27.695 12.9201 27.8815 12.6944 28.0099 12.4355C28.1383 12.1766 28.2051 11.8915 28.2051 11.6025C28.2051 11.3135 28.1383 11.0284 28.0099 10.7695C27.8815 10.5106 27.695 10.2849 27.465 10.11Z" fill="currentColor"/>
<path d="M30 20.6901L30 3.17007L30 0.195179C30.2589 0.0668011 30.6485 1.90735e-06 30.9375 1.90735e-06C31.2265 1.90735e-06 31.6161 0.0668011 31.875 0.195179L31.875 3.17007V20.6901V23.6721C31.6147 23.8023 31.2361 23.8701 30.945 23.8701C30.6539 23.8701 30.2604 23.8023 30 23.6721V20.6901Z" fill="currentColor"/>
<path d="M7.62939e-06 20.6901L7.62939e-06 3.17007L0 0.195179C0.258901 0.0668011 0.648525 1.90735e-06 0.937508 1.90735e-06C1.22649 1.90735e-06 1.61611 0.0668011 1.87501 0.195179L1.87501 3.17007L1.87501 20.6901L1.87501 23.6721C1.61465 23.8023 1.23609 23.8701 0.945008 23.8701C0.653924 23.8701 0.260362 23.8023 7.62939e-06 23.6721L7.62939e-06 20.6901Z" fill="currentColor"/>
</svg>
